<svg width="49" height="49" viewBox="0 0 49 49" fill="none" xmlns="http://www.w3.org/2000/svg">
<path d="M38.248 32.0049C38.4667 32.2161 38.8248 32.5066 39.0708 32.7017C39.4914 33.0353 40.7282 33.6433 40.9405 33.8693C41.0785 34.0159 41.0498 34.0266 41.0173 34.2082C40.9131 34.7893 40.1606 36.46 39.8755 37.0774C38.8261 39.352 36.2534 43.4775 34.2054 44.8051C30.4414 47.2438 27.8804 43.7062 24.0696 43.8837C20.3369 44.0586 17.9165 47.5842 14.1135 44.3612C8.59964 39.6869 4.98669 28.439 6.65321 21.3152C8.04501 15.3603 13.2412 11.0182 19.294 12.6472C20.6272 13.0063 22.4148 14.0771 23.6816 14.1672C25.0773 14.2667 26.7881 13.1543 28.1513 12.7212C32.5532 11.3236 37.1244 12.5113 39.8859 16.4001C39.9171 16.5736 38.1803 17.9927 37.8756 18.329C34.359 22.2326 34.4502 28.3381 38.248 32.0036V32.0049Z" fill="white"/>
<path d="M32.3233 2.21387C32.6616 7.1159 28.8408 12.3336 23.7919 12.1521C23.4058 11.8798 23.8823 9.59388 24.0231 9.08224C25.0173 5.45602 28.5567 2.30199 32.3233 2.21387Z" fill="white"/>
</svg>
